<svg version="1.0" xmlns="http://www.w3.org/2000/svg" width="933.333" height="933.333" viewBox="0 0 700 700"><path d="M0 350v350h700V0H0v350zm317-154.5c13.9 2.1 25.7 6.6 35.6 13.7l4.1 3 6.9-3.5c9-4.5 21.8-9 32.4-11.3 12.2-2.7 48.7-2.7 61 0 16.7 3.6 31.6 10.4 41.5 18.9l4 3.5 6-4.3c22.3-15.9 53.7-23.1 84.4-19.6 40.8 4.8 67.5 27.2 76.8 64.6 3.8 15.5 1.5 52.7-4.8 77.2-16.3 63.6-44.1 114.3-75.4 137.6-20.3 15.1-40.8 21.3-70 21.1-30.9-.2-53.1-8-69.8-24.6l-5.9-5.8-4.6 3.9c-13.8 11.5-33.1 20.4-53.5 24.8-12.6 2.7-39.2 2.5-51-.5-11.3-2.8-21.6-7.1-29.2-12.2-3.3-2.2-6.3-4-6.6-4-.4 0-3.7 1.8-7.5 4-14.7 8.6-34.1 13.7-55.4 14.6-22 1-40.4-3-56.3-12.2l-7.9-4.5-7.6 3.9c-17.2 8.9-36.4 12.7-59.7 11.9C79 494.9 64 489 48.9 474 37 462.2 31.6 451.4 29 434.5c-4.2-27.5 9.9-81.2 37.4-143 16.6-37 30.2-60.2 42.6-72.5 16.7-16.6 33-23 58.5-23 24.1 0 38.9 5.2 46.2 16.1 1.4 2.1 3 3.9 3.4 3.9.5 0 3.1-1.6 5.7-3.5 5.7-4 15.5-9 22.8-11.5 17.6-6.1 50.9-8.7 71.4-5.5z"/><path d="M287 211.7c-33.4 1.7-56.5 11.7-71.9 31-2.7 3.4-5.2 5.9-5.5 5.6-.3-.4-.6-2.3-.6-4.3 0-12.3-8.8-23.7-21.5-27.9-9.5-3.1-26.1-3.9-36.5-1.7-16.1 3.4-28.9 12.6-39.4 28.4-17.5 26.3-45.6 90.6-57.2 131-13.1 45.5-11.1 70.7 7 88.8 10.4 10.4 23.2 15.2 42.9 16.1 24.6 1.2 46-4.5 61.5-16.2 5.5-4.1 6.5-4.5 8-3.4.9.8 3.7 3 6.2 5 5.4 4.5 16.5 10.1 24 12.2 28.6 8.3 67.4 1.1 88.8-16.3l6.3-5.1 6.5 6c7.7 7 19.3 13.3 30.1 16.3 6.6 1.8 10.5 2.2 24.8 2.1 15.1 0 18.1-.3 26.8-2.6 11.1-3 25.5-9.5 34.8-15.7 3.5-2.4 10.7-8.5 15.9-13.7l9.6-9.3 2.8 5.8c8.2 16.9 23.2 28.3 43.8 33.2 28 6.7 60.2 1.2 82.9-14 9-6.1 22.5-20.1 29.8-31.1 19.5-29 39.3-82.4 45.6-122.8 2-13.1 2.1-33.3.1-42.7-6.1-28.6-23.2-45.4-53-52.1-10.1-2.2-34.6-2.2-45.1.1-20.4 4.5-34.6 11.9-48.6 25.3l-6.6 6.4-3.3-5.1c-7.7-12-22.7-21.7-40.5-26.2-7.9-2-11.5-2.3-29.5-2.3-17.8 0-21.6.3-29.2 2.2-13.4 3.4-23.7 7.8-33.3 14.1l-8.8 5.8-4.7-5c-6-6.3-13.3-10.8-23-14-7.5-2.4-23.5-4.8-30.7-4.4-2.1.1-6.3.3-9.3.5zm32 23.2c12.7 4.1 19.5 11.6 19.5 21.6 0 7.9-2.3 14-7.3 19.6-8.5 9.5-17.9 12.4-43.5 13.5l-16.7.7-2.2 3.4c-2.1 3.5-10.9 22.6-10.5 22.9.1 0 4.3-.3 9.2-.8 10.7-1.1 22.7.2 28.4 3.1 2.1 1.1 4.9 3.7 6.1 5.6 5 8 .2 24.5-9.7 33.5-8.3 7.6-15.4 9.4-33.7 8.7-7.7-.2-14.9-.8-15.8-1.2-2.1-.8-2.4-.3-8 18.3-2.2 7.4-3.8 13.6-3.5 13.9.3.2 4.1-.4 8.4-1.4 5.6-1.3 11.7-1.8 21.8-1.8 12.5 0 14.5.2 19 2.3 9.9 4.6 13.2 10.6 12.2 22.1-.8 9.6-4.3 16.6-11.7 23.4-11.7 10.8-27.9 16.1-50 16.1-12.2 0-14.3-.3-21.5-2.8-17-5.9-27.1-15.9-31.1-31.1-6.4-23.7 8-82 33.2-134.4 21.6-45.2 42.2-58.7 87.4-57.7 10.4.3 15 .8 20 2.5zm132.2 1c25.5 6.6 35.7 22.4 30.3 46.7-3.1 14.3-10 24-20.3 29.1-4.4 2.1-7.4 2.8-14.3 3.1-9.6.5-14.4-.6-18.9-4.4-4.8-4.1-5.5-8-3-17.6 1.2-4.5 1.9-9.2 1.6-10.3-.7-2.6-4.5-4.5-8.9-4.5-11.4 0-19.6 7.5-28.6 26.2-15.1 31.2-29.3 74.5-29.3 89.5-.1 9.9 3.4 13.6 12.8 13.5 6.5 0 12.2-2.8 18-8.9 5-5.1 11.5-17.5 11.7-22.4.2-3-.1-3.3-3.7-4.1-9-1.9-14.4-8.4-13.2-15.9 2-12.7 10.4-24 20.2-27.3 12.5-4.1 31.8-4 40.3.3 7.8 4 13.1 13.5 13.1 23.7 0 7-2.9 21.3-6.5 32.1-15.4 46.1-50.4 74.2-92.3 74.3-23 0-41.6-9.8-49.7-26.4-8.7-17.6-8.2-37.8 1.9-74.8 7-25.6 19.8-56.3 31.6-76.1 10.3-17.4 22.3-30.1 35.5-37.7 6.4-3.7 21.1-8.6 29.5-9.9 10.2-1.6 33.1-.6 42.2 1.8zm147.4-.3c19.3 5 29.9 16.1 34 35.4 5.6 26.2-7.9 81.6-31.2 128.3-17 34.1-33.6 50.1-58.9 56.8-10.7 2.9-32.8 3.1-42.5.5-18.8-5-30.1-15.8-34-32.5-1.7-7.3-1.5-24.5.5-36.6 6.5-40.7 30.6-103.4 47.9-125.1 13.4-16.7 29.6-25.6 51.6-28.4 8.6-1.1 25.3-.3 32.6 1.6zm-421 .7c6.7 3.5 10.1 11.1 8.9 19.6-2.3 16.9-13.5 44.9-39.5 99.1-6.7 14-13.9 29.1-16 33.5l-3.7 8h13.1c14.9 0 20.8 1.5 25 6.6 4 4.7 4.9 9.6 3.2 17.7-3.8 18-15.9 29.9-35.7 34.7-10 2.5-30 3.1-38.2 1.1-22.1-5.2-30.2-18.9-26.8-45.1 3.5-26.2 19.3-72.4 39.9-116.4 20.3-43.4 30.8-56.4 48.2-60.1 6.1-1.2 18.1-.5 21.6 1.3z"/><path d="M563.9 281c-6 3.1-11.7 13.4-22.2 40-11.3 28.4-20.5 57.1-22.7 70.4-.5 3.4-.5 6.8.1 9 2.7 9.8 15.4 10.1 23 .5 9.9-12.5 37.1-86.8 39.5-107.9.8-7.1-.7-11.7-4.3-13.1-3.8-1.4-9.5-1-13.4 1.1z"/></svg>
