<?xml version="1.0" standalone="no"?>
<!DOCTYPE svg PUBLIC "-//W3C//DTD SVG 20010904//EN"
 "http://www.w3.org/TR/2001/REC-SVG-20010904/DTD/svg10.dtd">
<svg version="1.0" xmlns="http://www.w3.org/2000/svg"
 width="700.000000pt" height="700.000000pt" viewBox="0 0 700.000000 700.000000"
 preserveAspectRatio="xMidYMid meet">
<metadata>
Created by potrace 1.14, written by Peter Selinger 2001-2017
</metadata>
<g transform="translate(0.000000,700.000000) scale(0.100000,-0.100000)"
fill="#000000" stroke="none">
<path d="M0 3500 l0 -3500 3500 0 3500 0 0 3500 0 3500 -3500 0 -3500 0 0
-3500z m3260 1532 c97 -26 174 -60 249 -111 l61 -41 72 36 c40 20 102 48 138
61 277 105 723 101 985 -7 80 -34 207 -112 238 -148 l19 -21 61 46 c193 142
461 212 756 200 279 -12 469 -84 629 -240 238 -232 299 -525 216 -1037 -22
-129 -91 -365 -170 -578 -144 -387 -301 -650 -506 -848 -214 -206 -433 -298
-743 -311 -319 -13 -572 65 -757 236 -50 46 -74 62 -83 55 -240 -176 -389
-244 -618 -280 -135 -22 -358 -15 -476 15 -93 24 -225 82 -297 131 -46 32 -47
33 -73 16 -56 -37 -210 -106 -281 -126 -169 -47 -380 -62 -546 -39 -130 18
-286 75 -394 145 -25 15 -28 15 -76 -13 -69 -41 -167 -79 -271 -105 -76 -19
-116 -22 -293 -23 -185 0 -213 2 -284 23 -159 46 -306 142 -392 255 -90 119
-132 238 -141 402 -18 340 182 982 509 1627 186 369 305 513 502 608 138 66
218 83 391 82 157 -1 258 -21 346 -69 48 -25 105 -79 127 -119 9 -17 14 -15
69 23 111 77 243 129 403 157 123 22 155 24 365 21 152 -2 205 -7 265 -23z"/>
<path d="M2870 4883 c-334 -17 -565 -117 -719 -310 -27 -34 -52 -59 -55 -56
-3 4 -6 23 -6 43 0 123 -88 237 -215 279 -95 31 -261 39 -365 17 -161 -34
-289 -126 -394 -284 -175 -263 -456 -906 -572 -1310 -131 -455 -111 -707 70
-888 104 -104 232 -152 429 -161 246 -12 460 45 615 162 55 41 65 45 80 34 9
-8 37 -30 62 -50 54 -45 165 -101 240 -122 286 -83 674 -11 888 163 l63 51 65
-60 c77 -70 193 -133 301 -163 66 -18 105 -22 248 -21 151 0 181 3 268 26 111
30 255 95 348 157 35 24 107 85 159 137 l96 93 28 -58 c82 -169 232 -283 438
-332 280 -67 602 -12 829 140 90 61 225 201 298 311 195 290 393 824 456 1228
20 131 21 333 1 427 -61 286 -232 454 -530 521 -101 22 -346 22 -451 -1 -204
-45 -346 -119 -486 -253 l-66 -64 -33 51 c-77 120 -227 217 -405 262 -79 20
-115 23 -295 23 -178 0 -216 -3 -292 -22 -134 -34 -237 -78 -333 -141 l-88
-58 -47 50 c-60 63 -133 108 -230 140 -75 24 -235 48 -307 44 -21 -1 -63 -3
-93 -5z m320 -232 c127 -41 195 -116 195 -216 0 -79 -23 -140 -73 -196 -85
-95 -179 -124 -435 -135 l-167 -7 -22 -34 c-21 -35 -109 -226 -105 -229 1 0
43 3 92 8 107 11 227 -2 284 -31 21 -11 49 -37 61 -56 50 -80 2 -245 -97 -335
-83 -76 -154 -94 -337 -87 -77 2 -149 8 -158 12 -21 8 -24 3 -80 -183 -22 -74
-38 -136 -35 -139 3 -2 41 4 84 14 56 13 117 18 218 18 125 0 145 -2 190 -23
99 -46 132 -106 122 -221 -8 -96 -43 -166 -117 -234 -117 -108 -279 -161 -500
-161 -122 0 -143 3 -215 28 -170 59 -271 159 -311 311 -64 237 80 820 332
1344 216 452 422 587 874 577 104 -3 150 -8 200 -25z m1322 -10 c255 -66 357
-224 303 -467 -31 -143 -100 -240 -203 -291 -44 -21 -74 -28 -143 -31 -96 -5
-144 6 -189 44 -48 41 -55 80 -30 176 12 45 19 92 16 103 -7 26 -45 45 -89 45
-114 0 -196 -75 -286 -262 -151 -312 -293 -745 -293 -895 -1 -99 34 -136 128
-135 65 0 122 28 180 89 50 51 115 175 117 224 2 30 -1 33 -37 41 -90 19 -144
84 -132 159 20 127 104 240 202 273 125 41 318 40 403 -3 78 -40 131 -135 131
-237 0 -70 -29 -213 -65 -321 -154 -461 -504 -742 -923 -743 -230 0 -416 98
-497 264 -87 176 -82 378 19 748 70 256 198 563 316 761 103 174 223 301 355
377 64 37 211 86 295 99 102 16 331 6 422 -18z m1474 3 c193 -50 299 -161 340
-354 56 -262 -79 -816 -312 -1283 -170 -341 -336 -501 -589 -568 -107 -29
-328 -31 -425 -5 -188 50 -301 158 -340 325 -17 73 -15 245 5 366 65 407 306
1034 479 1251 134 167 296 256 516 284 86 11 253 3 326 -16z m-4210 -7 c67
-35 101 -111 89 -196 -23 -169 -135 -449 -395 -991 -67 -140 -139 -291 -160
-335 l-37 -80 131 0 c149 0 208 -15 250 -66 40 -47 49 -96 32 -177 -38 -180
-159 -299 -357 -347 -100 -25 -300 -31 -382 -11 -221 52 -302 189 -268 451 35
262 193 724 399 1164 203 434 308 564 482 601 61 12 181 5 216 -13z"/>
<path d="M5639 4190 c-60 -31 -117 -134 -222 -400 -113 -284 -205 -571 -227
-704 -5 -34 -5 -68 1 -90 27 -98 154 -101 230 -5 99 125 371 868 395 1079 8
71 -7 117 -43 131 -38 14 -95 10 -134 -11z"/>
</g>
</svg>
